<svg aria-hidden="true"
     style="position: absolute; width: 0; height: 0; overflow: hidden;"
     version="1.1"
     xmlns="http://www.w3.org/2000/svg"
     xmlns:xlink="http://www.w3.org/1999/xlink">
  <defs>
    <symbol id="icon-heart-outlined"
            viewBox="0 0 20 20">
      <path d="M17.19 4.156c-1.672-1.535-4.383-1.535-6.055 0l-1.135 1.041-1.136-1.041c-1.672-1.535-4.382-1.535-6.054 0-1.881 1.726-1.881 4.519 0 6.245l7.19 6.599 7.19-6.599c1.88-1.726 1.88-4.52 0-6.245zM16.124 9.375l-6.124 5.715-6.125-5.715c-0.617-0.567-0.856-1.307-0.856-2.094s0.138-1.433 0.756-1.999c0.545-0.501 1.278-0.777 2.063-0.777s1.517 0.476 2.062 0.978l2.1 1.825 2.099-1.826c0.546-0.502 1.278-0.978 2.063-0.978s1.518 0.276 2.063 0.777c0.618 0.566 0.755 1.212 0.755 1.999s-0.238 1.528-0.856 2.095z" />
    </symbol>
    <symbol id="icon-home"
            viewBox="0 0 20 20">
      <path d="M18.672 11h-1.672v6c0 0.445-0.194 1-1 1h-4v-6h-4v6h-4c-0.806 0-1-0.555-1-1v-6h-1.672c-0.598 0-0.47-0.324-0.060-0.748l8.024-8.032c0.195-0.202 0.451-0.302 0.708-0.312 0.257 0.010 0.513 0.109 0.708 0.312l8.023 8.031c0.411 0.425 0.539 0.749-0.059 0.749z" />
    </symbol>
    <symbol id="icon-magnifying-glass"
            viewBox="0 0 20 20">
      <path d="M17.545 15.467l-3.779-3.779c0.57-0.935 0.898-2.035 0.898-3.21 0-3.417-2.961-6.377-6.378-6.377s-6.186 2.769-6.186 6.186c0 3.416 2.961 6.377 6.377 6.377 1.137 0 2.2-0.309 3.115-0.844l3.799 3.801c0.372 0.371 0.975 0.371 1.346 0l0.943-0.943c0.371-0.371 0.236-0.84-0.135-1.211zM4.004 8.287c0-2.366 1.917-4.283 4.282-4.283s4.474 2.107 4.474 4.474c0 2.365-1.918 4.283-4.283 4.283s-4.473-2.109-4.473-4.474z" />
    </symbol>
    <symbol id="icon-user"
            viewBox="0 0 20 20">
      <path d="M7.725 2.146c-1.016 0.756-1.289 1.953-1.239 2.59 0.064 0.779 0.222 1.793 0.222 1.793s-0.313 0.17-0.313 0.854c0.109 1.717 0.683 0.976 0.801 1.729 0.284 1.814 0.933 1.491 0.933 2.481 0 1.649-0.68 2.42-2.803 3.334-2.13 0.918-4.326 2.073-4.326 4.073v1h18v-1c0-2-2.197-3.155-4.328-4.072-2.123-0.914-2.801-1.684-2.801-3.334 0-0.99 0.647-0.667 0.932-2.481 0.119-0.753 0.692-0.012 0.803-1.729 0-0.684-0.314-0.854-0.314-0.854s0.158-1.014 0.221-1.793c0.065-0.817-0.398-2.561-2.3-3.096-0.333-0.34-0.558-0.881 0.466-1.424-2.24-0.105-2.761 1.067-3.954 1.929z" />
    </symbol>
    <symbol id="icon-chevron-left"
            viewBox="0 0 20 20">
      <path d="M12.452 4.516c0.446 0.436 0.481 1.043 0 1.576l-3.747 3.908 3.747 3.908c0.481 0.533 0.446 1.141 0 1.574-0.445 0.436-1.197 0.408-1.615 0-0.418-0.406-4.502-4.695-4.502-4.695-0.223-0.217-0.335-0.502-0.335-0.787s0.112-0.57 0.335-0.789c0 0 4.084-4.287 4.502-4.695s1.17-0.436 1.615 0z" />
    </symbol>
    <symbol id="icon-chevron-right"
            viewBox="0 0 20 20">
      <path d="M9.163 4.516c0.418 0.408 4.502 4.695 4.502 4.695 0.223 0.219 0.335 0.504 0.335 0.789s-0.112 0.57-0.335 0.787c0 0-4.084 4.289-4.502 4.695-0.418 0.408-1.17 0.436-1.615 0-0.446-0.434-0.481-1.041 0-1.574l3.747-3.908-3.747-3.908c-0.481-0.533-0.446-1.141 0-1.576s1.197-0.409 1.615 0z" />
    </symbol>
    <symbol id="icon-chevron-with-circle-left"
            viewBox="0 0 20 20">
      <path d="M11.302 6.776c-0.196-0.197-0.515-0.197-0.71 0l-2.807 2.865c-0.196 0.199-0.196 0.52 0 0.717l2.807 2.864c0.195 0.199 0.514 0.198 0.71 0 0.196-0.197 0.196-0.518 0-0.717l-2.302-2.505 2.302-2.506c0.196-0.198 0.196-0.518 0-0.718zM10 0.4c-5.302 0-9.6 4.298-9.6 9.6 0 5.303 4.298 9.6 9.6 9.6s9.6-4.297 9.6-9.6c0-5.302-4.298-9.6-9.6-9.6zM10 18.354c-4.615 0-8.354-3.74-8.354-8.354s3.739-8.354 8.354-8.354c4.613 0 8.354 3.74 8.354 8.354s-3.741 8.354-8.354 8.354z" />
    </symbol>
    <symbol id="icon-chevron-with-circle-right"
            viewBox="0 0 20 20">
      <path d="M11 10l-2.302-2.506c-0.196-0.198-0.196-0.519 0-0.718 0.196-0.197 0.515-0.197 0.71 0l2.807 2.864c0.196 0.199 0.196 0.52 0 0.717l-2.807 2.864c-0.195 0.199-0.514 0.198-0.71 0-0.196-0.197-0.196-0.518 0-0.717l2.302-2.504zM10 0.4c5.302 0 9.6 4.298 9.6 9.6 0 5.303-4.298 9.6-9.6 9.6s-9.6-4.297-9.6-9.6c0-5.302 4.298-9.6 9.6-9.6zM10 18.354c4.613 0 8.354-3.74 8.354-8.354s-3.741-8.354-8.354-8.354c-4.615 0-8.354 3.74-8.354 8.354s3.739 8.354 8.354 8.354z" />
    </symbol>
  </defs>
</svg>